<svg width="33" height="33" viewBox="0 0 33 33" fill="none" xmlns="http://www.w3.org/2000/svg">
<path d="M16.5 0C14.3332 0 12.1876 0.437381 10.1857 1.28717C8.18385 2.13696 6.3649 3.38251 4.83274 4.95272C1.73839 8.12389 0 12.4249 0 16.9096C0 24.3837 4.7355 30.7248 11.286 32.9738C12.111 33.1091 12.375 32.5849 12.375 32.1283V29.2706C7.8045 30.2852 6.831 27.0047 6.831 27.0047C6.072 25.0432 4.9995 24.519 4.9995 24.519C3.498 23.4706 5.115 23.5044 5.115 23.5044C6.765 23.6228 7.6395 25.2461 7.6395 25.2461C9.075 27.8164 11.5005 27.0554 12.441 26.6496C12.5895 25.5505 13.0185 24.8064 13.4805 24.3837C9.8175 23.961 5.973 22.5067 5.973 16.0642C5.973 14.1872 6.6 12.6822 7.6725 11.4816C7.5075 11.0589 6.93 9.3003 7.8375 7.0175C7.8375 7.0175 9.2235 6.56094 12.375 8.74229C13.6785 8.37027 15.0975 8.18427 16.5 8.18427C17.9025 8.18427 19.3215 8.37027 20.625 8.74229C23.7765 6.56094 25.1625 7.0175 25.1625 7.0175C26.07 9.3003 25.4925 11.0589 25.3275 11.4816C26.4 12.6822 27.027 14.1872 27.027 16.0642C27.027 22.5236 23.166 23.9441 19.4865 24.3668C20.0805 24.891 20.625 25.9225 20.625 27.4951V32.1283C20.625 32.5849 20.889 33.126 21.7305 32.9738C28.281 30.7079 33 24.3837 33 16.9096C33 14.689 32.5732 12.4902 31.744 10.4386C30.9148 8.38703 29.6994 6.52293 28.1673 4.95272C26.6351 3.38251 24.8161 2.13696 22.8143 1.28717C20.8124 0.437381 18.6668 0 16.5 0Z" fill="#F37021"/>
</svg>
