<svg width="34" height="29" viewBox="0 0 34 29" fill="none" xmlns="http://www.w3.org/2000/svg">
<path d="M30.6 25.375H27.2V9.51562L17 16.3125L6.8 9.51562V25.375H3.4V3.625H5.44L17 11.3281L28.56 3.625H30.6M30.6 0H3.4C1.513 0 0 1.61312 0 3.625V25.375C0 26.3364 0.358213 27.2584 0.995837 27.9383C1.63346 28.6181 2.49826 29 3.4 29H30.6C31.5017 29 32.3665 28.6181 33.0042 27.9383C33.6418 27.2584 34 26.3364 34 25.375V3.625C34 2.66359 33.6418 1.74156 33.0042 1.06174C32.3665 0.381918 31.5017 0 30.6 0Z" fill="#F37021"/>
</svg>
