<svg width="32" height="29" viewBox="0 0 32 29" fill="none" xmlns="http://www.w3.org/2000/svg">
<path d="M28.4444 0C29.3874 0 30.2918 0.339483 30.9586 0.943767C31.6254 1.54805 32 2.36764 32 3.22222V25.7778C32 26.6324 31.6254 27.4519 30.9586 28.0562C30.2918 28.6605 29.3874 29 28.4444 29H3.55556C2.61256 29 1.70819 28.6605 1.0414 28.0562C0.374602 27.4519 0 26.6324 0 25.7778V3.22222C0 2.36764 0.374602 1.54805 1.0414 0.943767C1.70819 0.339483 2.61256 0 3.55556 0H28.4444ZM27.5556 24.9722V16.4333C27.5556 15.0404 26.945 13.7044 25.8581 12.7195C24.7712 11.7345 23.2971 11.1811 21.76 11.1811C20.2489 11.1811 18.4889 12.0189 17.6356 13.2756V11.4872H12.6756V24.9722H17.6356V17.0294C17.6356 15.7889 18.7378 14.7739 20.1067 14.7739C20.7668 14.7739 21.3998 15.0115 21.8666 15.4345C22.3333 15.8575 22.5956 16.4312 22.5956 17.0294V24.9722H27.5556ZM6.89778 8.95778C7.68989 8.95778 8.44956 8.67261 9.00967 8.16501C9.56978 7.65742 9.88445 6.96896 9.88445 6.25111C9.88445 4.75278 8.55111 3.52833 6.89778 3.52833C6.10095 3.52833 5.33676 3.8152 4.77331 4.32582C4.20987 4.83644 3.89333 5.52899 3.89333 6.25111C3.89333 7.74944 5.24444 8.95778 6.89778 8.95778ZM9.36889 24.9722V11.4872H4.44444V24.9722H9.36889Z" fill="#F37021"/>
</svg>
