<!DOCTYPE svg PUBLIC "-//W3C//DTD SVG 1.1//EN" "http://www.w3.org/Graphics/SVG/1.1/DTD/svg11.dtd">
<!-- Uploaded to: SVG Repo, www.svgrepo.com, Transformed by: SVG Repo Mixer Tools -->
<svg height="256px" width="256px" version="1.1" id="Layer_1" xmlns="http://www.w3.org/2000/svg" xmlns:xlink="http://www.w3.org/1999/xlink" viewBox="0 0 472 472" xml:space="preserve" fill="#000000">
<g id="SVGRepo_bgCarrier" stroke-width="0"/>
<g id="SVGRepo_tracerCarrier" stroke-linecap="round" stroke-linejoin="round"/>
<g id="SVGRepo_iconCarrier"> <path style="fill:#C42014;" d="M236,0C105.6,0,0,105.6,0,236s105.6,236,236,236s236-105.6,236-236S366.4,0,236,0z M236,349.6 c-63.2,0-113.6-51.2-113.6-113.6c0-63.2,51.2-113.6,113.6-113.6S349.6,172.8,349.6,236S299.2,349.6,236,349.6z"/> <g> <path style="fill:#840202;" d="M240.8,0v122.4c56,2.4,109.6,52,109.6,113.6s-53.6,111.2-109.6,113.6V472 c128-2.4,231.2-107.2,231.2-236S368.8,2.4,240.8,0z"/> <circle style="fill:#840202;" cx="236" cy="236" r="36"/> </g> </g>
</svg>