<!DOCTYPE svg PUBLIC "-//W3C//DTD SVG 1.1//EN" "http://www.w3.org/Graphics/SVG/1.1/DTD/svg11.dtd">
<!-- Uploaded to: SVG Repo, www.svgrepo.com, Transformed by: SVG Repo Mixer Tools -->
<svg version="1.1" id="Layer_1" xmlns="http://www.w3.org/2000/svg" xmlns:xlink="http://www.w3.org/1999/xlink" viewBox="0 0 511.98 511.98" xml:space="preserve" width="256px" height="256px" fill="#000000">
<g id="SVGRepo_bgCarrier" stroke-width="0"/>
<g id="SVGRepo_tracerCarrier" stroke-linecap="round" stroke-linejoin="round"/>
<g id="SVGRepo_iconCarrier"> <rect x="10.671" y="10.671" style="fill:#FECD57;" width="490.65" height="490.64"/> <path style="fill:#F5BA45;" d="M0,0v511.98h511.98V0H0z M490.653,490.653H21.343V21.327h469.311v469.326H490.653z"/> <path style="fill:#F4F6F9;" d="M255.99,277.318c-11.75,0-21.327-9.562-21.327-21.328c0-11.765,9.578-21.327,21.327-21.327 c11.781,0,21.344,9.562,21.344,21.327C277.334,267.756,267.771,277.318,255.99,277.318z"/> <path style="fill:#E5E8EC;" d="M255.99,223.991c-17.656,0-31.999,14.328-31.999,31.999c0,17.672,14.343,31.999,31.999,31.999 c17.688,0,31.999-14.327,31.999-31.999C287.989,238.319,273.678,223.991,255.99,223.991z M255.99,266.662 c-5.875,0-10.656-4.797-10.656-10.672c0-5.875,4.781-10.671,10.656-10.671c5.891,0,10.672,4.797,10.672,10.671 C266.662,261.865,261.881,266.662,255.99,266.662z"/> <path style="fill:#F5BA45;" d="M255.99,21.327c-129.589,0-234.647,105.059-234.647,234.663S126.401,490.653,255.99,490.653 c129.604,0,234.663-105.059,234.663-234.663S385.594,21.327,255.99,21.327z M406.844,406.829 c-19.609,19.608-42.421,34.982-67.826,45.731c-26.28,11.125-54.216,16.75-83.028,16.75s-56.732-5.625-83.028-16.75 c-25.389-10.749-48.217-26.123-67.81-45.731c-19.593-19.594-34.983-42.405-45.717-67.811C48.31,312.738,42.67,284.802,42.67,255.99 s5.641-56.748,16.765-83.028c10.734-25.405,26.124-48.217,45.717-67.81c19.593-19.608,42.421-34.983,67.81-45.732 c26.296-11.125,54.216-16.75,83.028-16.75s56.748,5.625,83.028,16.75c25.405,10.75,48.217,26.124,67.826,45.732 c19.593,19.593,34.982,42.405,45.731,67.81c11.109,26.281,16.75,54.217,16.75,83.028c0,28.812-5.641,56.748-16.75,83.028 C441.827,364.424,426.437,387.235,406.844,406.829z"/> </g>
</svg>